<mxfile host="app.diagrams.net" modified="2023-05-14T19:27:03.662Z" agent="Mozilla/5.0 (X11; Linux x86_64; rv:109.0) Gecko/20100101 Firefox/115.0" etag="9WO5FD44YYuids6E6WuD" version="21.3.0" type="device">
  <diagram name="Page-1" id="l-hQDmf7lSU-zeZoiuxE">
    <mxGraphModel dx="998" dy="1456" grid="1" gridSize="10" guides="1" tooltips="1" connect="1" arrows="1" fold="1" page="1" pageScale="1" pageWidth="1100" pageHeight="850" math="0" shadow="0">
      <root>
        <mxCell id="0" />
        <mxCell id="1" parent="0" />
        <mxCell id="S5KdZdQlHy9pQSUYq_Fz-17" style="edgeStyle=orthogonalEdgeStyle;rounded=0;orthogonalLoop=1;jettySize=auto;html=1;exitX=1;exitY=0.5;exitDx=0;exitDy=0;entryX=0;entryY=0.5;entryDx=0;entryDy=0;" edge="1" parent="1" source="S5KdZdQlHy9pQSUYq_Fz-1" target="S5KdZdQlHy9pQSUYq_Fz-3">
          <mxGeometry relative="1" as="geometry" />
        </mxCell>
        <mxCell id="S5KdZdQlHy9pQSUYq_Fz-44" style="edgeStyle=orthogonalEdgeStyle;rounded=0;orthogonalLoop=1;jettySize=auto;html=1;exitX=0.5;exitY=1;exitDx=0;exitDy=0;entryX=0.5;entryY=0;entryDx=0;entryDy=0;" edge="1" parent="1" source="S5KdZdQlHy9pQSUYq_Fz-1" target="S5KdZdQlHy9pQSUYq_Fz-43">
          <mxGeometry relative="1" as="geometry" />
        </mxCell>
        <mxCell id="S5KdZdQlHy9pQSUYq_Fz-1" value="web frontend" style="rounded=0;whiteSpace=wrap;html=1;" vertex="1" parent="1">
          <mxGeometry x="40" y="200" width="120" height="80" as="geometry" />
        </mxCell>
        <mxCell id="S5KdZdQlHy9pQSUYq_Fz-10" style="edgeStyle=orthogonalEdgeStyle;rounded=0;orthogonalLoop=1;jettySize=auto;html=1;exitX=0.5;exitY=1;exitDx=0;exitDy=0;entryX=0;entryY=0.5;entryDx=0;entryDy=0;" edge="1" parent="1" source="S5KdZdQlHy9pQSUYq_Fz-3" target="S5KdZdQlHy9pQSUYq_Fz-9">
          <mxGeometry relative="1" as="geometry" />
        </mxCell>
        <mxCell id="S5KdZdQlHy9pQSUYq_Fz-14" style="edgeStyle=orthogonalEdgeStyle;rounded=0;orthogonalLoop=1;jettySize=auto;html=1;exitX=1;exitY=0.5;exitDx=0;exitDy=0;entryX=0;entryY=0.5;entryDx=0;entryDy=0;" edge="1" parent="1" source="S5KdZdQlHy9pQSUYq_Fz-3" target="S5KdZdQlHy9pQSUYq_Fz-4">
          <mxGeometry relative="1" as="geometry" />
        </mxCell>
        <mxCell id="S5KdZdQlHy9pQSUYq_Fz-18" style="edgeStyle=orthogonalEdgeStyle;rounded=0;orthogonalLoop=1;jettySize=auto;html=1;exitX=0.5;exitY=0;exitDx=0;exitDy=0;" edge="1" parent="1" source="S5KdZdQlHy9pQSUYq_Fz-3" target="S5KdZdQlHy9pQSUYq_Fz-19">
          <mxGeometry relative="1" as="geometry">
            <mxPoint x="260" y="100" as="targetPoint" />
          </mxGeometry>
        </mxCell>
        <mxCell id="S5KdZdQlHy9pQSUYq_Fz-3" value="upload" style="rounded=0;whiteSpace=wrap;html=1;" vertex="1" parent="1">
          <mxGeometry x="220" y="215" width="80" height="50" as="geometry" />
        </mxCell>
        <mxCell id="S5KdZdQlHy9pQSUYq_Fz-11" style="edgeStyle=orthogonalEdgeStyle;rounded=0;orthogonalLoop=1;jettySize=auto;html=1;exitX=0.5;exitY=1;exitDx=0;exitDy=0;entryX=0.25;entryY=0;entryDx=0;entryDy=0;" edge="1" parent="1" source="S5KdZdQlHy9pQSUYq_Fz-4" target="S5KdZdQlHy9pQSUYq_Fz-9">
          <mxGeometry relative="1" as="geometry" />
        </mxCell>
        <mxCell id="S5KdZdQlHy9pQSUYq_Fz-15" style="edgeStyle=orthogonalEdgeStyle;rounded=0;orthogonalLoop=1;jettySize=auto;html=1;exitX=1;exitY=0.5;exitDx=0;exitDy=0;entryX=0;entryY=0.5;entryDx=0;entryDy=0;" edge="1" parent="1" source="S5KdZdQlHy9pQSUYq_Fz-4" target="S5KdZdQlHy9pQSUYq_Fz-5">
          <mxGeometry relative="1" as="geometry" />
        </mxCell>
        <mxCell id="S5KdZdQlHy9pQSUYq_Fz-4" value="&lt;div&gt;board segmentation&lt;/div&gt;&lt;div&gt;stage&lt;br&gt;&lt;/div&gt;" style="rounded=0;whiteSpace=wrap;html=1;strokeWidth=2;glass=0;shadow=0;" vertex="1" parent="1">
          <mxGeometry x="360" y="210" width="120" height="60" as="geometry" />
        </mxCell>
        <mxCell id="S5KdZdQlHy9pQSUYq_Fz-12" style="edgeStyle=orthogonalEdgeStyle;rounded=0;orthogonalLoop=1;jettySize=auto;html=1;exitX=0.5;exitY=1;exitDx=0;exitDy=0;entryX=0.75;entryY=0;entryDx=0;entryDy=0;" edge="1" parent="1" source="S5KdZdQlHy9pQSUYq_Fz-5" target="S5KdZdQlHy9pQSUYq_Fz-9">
          <mxGeometry relative="1" as="geometry" />
        </mxCell>
        <mxCell id="S5KdZdQlHy9pQSUYq_Fz-16" style="edgeStyle=orthogonalEdgeStyle;rounded=0;orthogonalLoop=1;jettySize=auto;html=1;exitX=1;exitY=0.5;exitDx=0;exitDy=0;entryX=0;entryY=0.5;entryDx=0;entryDy=0;" edge="1" parent="1" source="S5KdZdQlHy9pQSUYq_Fz-5" target="S5KdZdQlHy9pQSUYq_Fz-7">
          <mxGeometry relative="1" as="geometry" />
        </mxCell>
        <mxCell id="S5KdZdQlHy9pQSUYq_Fz-5" value="&lt;div&gt;piece classification&lt;br&gt;&lt;/div&gt;&lt;div&gt;stage&lt;br&gt;&lt;/div&gt;" style="rounded=0;whiteSpace=wrap;html=1;strokeWidth=2;" vertex="1" parent="1">
          <mxGeometry x="520" y="210" width="120" height="60" as="geometry" />
        </mxCell>
        <mxCell id="S5KdZdQlHy9pQSUYq_Fz-7" value="results" style="rounded=0;whiteSpace=wrap;html=1;" vertex="1" parent="1">
          <mxGeometry x="700" y="215" width="80" height="50" as="geometry" />
        </mxCell>
        <mxCell id="S5KdZdQlHy9pQSUYq_Fz-13" style="edgeStyle=orthogonalEdgeStyle;rounded=0;orthogonalLoop=1;jettySize=auto;html=1;exitX=1;exitY=0.5;exitDx=0;exitDy=0;entryX=0.5;entryY=1;entryDx=0;entryDy=0;" edge="1" parent="1" source="S5KdZdQlHy9pQSUYq_Fz-9" target="S5KdZdQlHy9pQSUYq_Fz-7">
          <mxGeometry relative="1" as="geometry" />
        </mxCell>
        <mxCell id="S5KdZdQlHy9pQSUYq_Fz-9" value="error queue" style="shape=process;whiteSpace=wrap;html=1;backgroundOutline=1;" vertex="1" parent="1">
          <mxGeometry x="460" y="320" width="90" height="40" as="geometry" />
        </mxCell>
        <mxCell id="S5KdZdQlHy9pQSUYq_Fz-19" value="&lt;div&gt;file server&lt;/div&gt;" style="rounded=0;whiteSpace=wrap;html=1;" vertex="1" parent="1">
          <mxGeometry x="200" y="80" width="120" height="60" as="geometry" />
        </mxCell>
        <mxCell id="S5KdZdQlHy9pQSUYq_Fz-20" value="" style="rounded=0;whiteSpace=wrap;html=1;fillColor=none;" vertex="1" parent="1">
          <mxGeometry x="200" y="180" width="600" height="200" as="geometry" />
        </mxCell>
        <mxCell id="S5KdZdQlHy9pQSUYq_Fz-27" style="rounded=0;orthogonalLoop=1;jettySize=auto;html=1;exitX=1;exitY=0.5;exitDx=0;exitDy=0;entryX=0;entryY=0.5;entryDx=0;entryDy=0;dashed=1;" edge="1" parent="1" source="S5KdZdQlHy9pQSUYq_Fz-23" target="S5KdZdQlHy9pQSUYq_Fz-25">
          <mxGeometry relative="1" as="geometry" />
        </mxCell>
        <mxCell id="S5KdZdQlHy9pQSUYq_Fz-37" style="rounded=0;orthogonalLoop=1;jettySize=auto;html=1;exitX=1;exitY=0.5;exitDx=0;exitDy=0;entryX=0;entryY=0.5;entryDx=0;entryDy=0;" edge="1" parent="1" source="S5KdZdQlHy9pQSUYq_Fz-23" target="S5KdZdQlHy9pQSUYq_Fz-24">
          <mxGeometry relative="1" as="geometry" />
        </mxCell>
        <mxCell id="S5KdZdQlHy9pQSUYq_Fz-23" value="stage queue" style="shape=process;whiteSpace=wrap;html=1;backgroundOutline=1;" vertex="1" parent="1">
          <mxGeometry x="300" y="510" width="100" height="40" as="geometry" />
        </mxCell>
        <mxCell id="S5KdZdQlHy9pQSUYq_Fz-30" style="rounded=0;orthogonalLoop=1;jettySize=auto;html=1;exitX=1;exitY=0.5;exitDx=0;exitDy=0;entryX=0;entryY=0.5;entryDx=0;entryDy=0;" edge="1" parent="1" source="S5KdZdQlHy9pQSUYq_Fz-29">
          <mxGeometry relative="1" as="geometry">
            <mxPoint x="640" y="530" as="targetPoint" />
          </mxGeometry>
        </mxCell>
        <mxCell id="S5KdZdQlHy9pQSUYq_Fz-24" value="stage wrapper" style="rounded=0;whiteSpace=wrap;html=1;" vertex="1" parent="1">
          <mxGeometry x="440" y="460" width="120" height="60" as="geometry" />
        </mxCell>
        <mxCell id="S5KdZdQlHy9pQSUYq_Fz-31" style="rounded=0;orthogonalLoop=1;jettySize=auto;html=1;exitX=1;exitY=0.5;exitDx=0;exitDy=0;entryX=0;entryY=0.5;entryDx=0;entryDy=0;dashed=1;" edge="1" parent="1" source="S5KdZdQlHy9pQSUYq_Fz-25" target="S5KdZdQlHy9pQSUYq_Fz-29">
          <mxGeometry relative="1" as="geometry">
            <mxPoint x="640" y="530" as="targetPoint" />
          </mxGeometry>
        </mxCell>
        <mxCell id="S5KdZdQlHy9pQSUYq_Fz-25" value="stage wrapper" style="rounded=0;whiteSpace=wrap;html=1;dashed=1;" vertex="1" parent="1">
          <mxGeometry x="440" y="540" width="120" height="60" as="geometry" />
        </mxCell>
        <mxCell id="S5KdZdQlHy9pQSUYq_Fz-33" value="" style="rounded=0;orthogonalLoop=1;jettySize=auto;html=1;exitX=1;exitY=0.5;exitDx=0;exitDy=0;entryX=0;entryY=0.5;entryDx=0;entryDy=0;" edge="1" parent="1" source="S5KdZdQlHy9pQSUYq_Fz-24" target="S5KdZdQlHy9pQSUYq_Fz-29">
          <mxGeometry relative="1" as="geometry">
            <mxPoint x="560" y="490" as="sourcePoint" />
            <mxPoint x="640" y="530" as="targetPoint" />
          </mxGeometry>
        </mxCell>
        <mxCell id="S5KdZdQlHy9pQSUYq_Fz-29" value="stage queue" style="shape=process;whiteSpace=wrap;html=1;backgroundOutline=1;dashed=1;" vertex="1" parent="1">
          <mxGeometry x="600" y="510" width="100" height="40" as="geometry" />
        </mxCell>
        <mxCell id="S5KdZdQlHy9pQSUYq_Fz-35" value="" style="endArrow=none;dashed=1;html=1;dashPattern=1 3;strokeWidth=2;rounded=0;" edge="1" parent="1">
          <mxGeometry width="50" height="50" relative="1" as="geometry">
            <mxPoint x="440" y="620" as="sourcePoint" />
            <mxPoint x="560" y="620" as="targetPoint" />
          </mxGeometry>
        </mxCell>
        <mxCell id="S5KdZdQlHy9pQSUYq_Fz-32" value="" style="rounded=0;whiteSpace=wrap;html=1;strokeColor=default;fillColor=none;strokeWidth=2;" vertex="1" parent="1">
          <mxGeometry x="280" y="440" width="300" height="200" as="geometry" />
        </mxCell>
        <mxCell id="S5KdZdQlHy9pQSUYq_Fz-42" style="rounded=0;orthogonalLoop=1;jettySize=auto;html=1;entryX=0;entryY=0.5;entryDx=0;entryDy=0;dashed=1;" edge="1" parent="1" target="S5KdZdQlHy9pQSUYq_Fz-23">
          <mxGeometry relative="1" as="geometry">
            <mxPoint x="280" y="530" as="sourcePoint" />
            <mxPoint x="320" y="500" as="targetPoint" />
          </mxGeometry>
        </mxCell>
        <mxCell id="S5KdZdQlHy9pQSUYq_Fz-43" value="engine service" style="rounded=0;whiteSpace=wrap;html=1;" vertex="1" parent="1">
          <mxGeometry x="40" y="320" width="120" height="60" as="geometry" />
        </mxCell>
        <mxCell id="S5KdZdQlHy9pQSUYq_Fz-45" value="pipeline" style="text;html=1;strokeColor=none;fillColor=none;align=center;verticalAlign=middle;whiteSpace=wrap;rounded=0;" vertex="1" parent="1">
          <mxGeometry x="740" y="350" width="60" height="30" as="geometry" />
        </mxCell>
        <mxCell id="S5KdZdQlHy9pQSUYq_Fz-46" value="stage" style="text;html=1;strokeColor=none;fillColor=none;align=center;verticalAlign=middle;whiteSpace=wrap;rounded=0;" vertex="1" parent="1">
          <mxGeometry x="280" y="440" width="60" height="30" as="geometry" />
        </mxCell>
        <mxCell id="S5KdZdQlHy9pQSUYq_Fz-47" style="edgeStyle=orthogonalEdgeStyle;rounded=0;orthogonalLoop=1;jettySize=auto;html=1;exitX=0.5;exitY=1;exitDx=0;exitDy=0;" edge="1" parent="1" source="S5KdZdQlHy9pQSUYq_Fz-20" target="S5KdZdQlHy9pQSUYq_Fz-20">
          <mxGeometry relative="1" as="geometry" />
        </mxCell>
      </root>
    </mxGraphModel>
  </diagram>
</mxfile>
